<?xml version="1.0" standalone="no"?>
<!DOCTYPE svg PUBLIC "-//W3C//DTD SVG 20010904//EN"
 "http://www.w3.org/TR/2001/REC-SVG-20010904/DTD/svg10.dtd">
<svg version="1.0" xmlns="http://www.w3.org/2000/svg"
 width="260.000000pt" height="260.000000pt" viewBox="0 0 260.000000 260.000000"
 preserveAspectRatio="xMidYMid meet">
<metadata>
Created by potrace 1.14, written by Peter Selinger 2001-2017
</metadata>
<g transform="translate(0.000000,260.000000) scale(0.100000,-0.100000)"
fill="#000000" stroke="none">
<path d="M0 1300 l0 -1300 1300 0 1300 0 0 1300 0 1300 -1300 0 -1300 0 0
-1300z m1047 684 c149 -59 253 -94 266 -91 12 2 127 46 254 97 128 52 235 91
237 89 2 -2 -8 -102 -22 -221 l-26 -217 39 -58 c22 -32 57 -82 78 -111 21 -30
37 -55 35 -57 -46 -41 -351 -285 -354 -283 -2 2 40 109 92 238 53 129 98 242
102 250 6 15 -35 -18 -143 -118 -33 -31 -74 -69 -91 -85 l-31 -28 -89 240
c-49 132 -92 241 -95 241 -3 0 -46 -108 -94 -240 l-88 -241 -21 19 c-12 10
-72 64 -133 121 -62 57 -113 100 -113 97 0 -4 43 -113 96 -244 53 -130 99
-244 102 -252 3 -8 -10 -1 -29 16 -19 17 -95 79 -169 139 -74 59 -141 114
-149 121 -12 11 -3 29 59 116 40 56 74 108 77 114 2 6 -8 105 -22 221 -28 238
-27 223 -18 223 4 0 116 -43 250 -96z m312 -839 c28 -110 54 -210 57 -222 6
-23 6 -23 -115 -23 l-122 0 16 -27 c8 -16 23 -39 33 -53 l17 -24 -33 19 c-19
11 -37 25 -41 30 -10 12 121 518 130 507 3 -4 29 -97 58 -207z m71 -277 c0
-15 -13 -31 -36 -46 -39 -26 -40 -25 -5 31 26 42 41 47 41 15z m300 -323 c-7
-8 -19 -15 -26 -15 -8 0 -14 -7 -14 -15 0 -8 7 -15 15 -15 8 0 15 -4 15 -10 0
-5 -7 -10 -15 -10 -9 0 -15 -9 -15 -25 0 -14 -4 -25 -10 -25 -10 0 -15 112 -5
121 2 3 18 6 36 7 28 2 30 0 19 -13z m-856 -27 c5 -25 9 -29 16 -19 7 12 11
12 24 2 14 -11 16 -11 16 5 0 24 17 51 25 42 6 -6 0 -34 -21 -98 -4 -11 -9 -9
-20 10 l-14 25 -6 -22 c-6 -21 -24 -33 -24 -15 0 4 -7 28 -15 55 -11 38 -12
47 -1 47 8 0 16 -15 20 -32z m331 -28 c0 -53 -1 -55 -28 -58 -29 -4 -36 6 -41
54 -4 44 11 66 42 62 26 -3 27 -6 27 -58z m231 10 c-3 -47 -2 -50 20 -50 13 0
24 -4 24 -10 0 -5 -15 -10 -33 -10 l-32 0 0 60 c0 40 4 60 12 60 8 0 11 -16 9
-50z"/>
<path d="M1159 525 c-1 -3 -1 -16 -1 -30 0 -41 1 -45 17 -45 11 0 15 11 15 40
0 29 -4 40 -15 40 -8 0 -15 -2 -16 -5z"/>
</g>
</svg>
